<svg xmlns="http://www.w3.org/2000/svg"  viewBox="0 0 48 48" width="48px" height="48px"><path fill="#424242" d="M27,5h-6c-1.699,0-3,1.301-3,3v3h2V8c0-0.602,0.398-1,1-1h6c0.602,0,1,0.398,1,1v3h2V8	C30,6.301,28.699,5,27,5z"/><path fill="#e65100" d="M40,41H8c-2.199,0-4-1.801-4-4V13c0-2.199,1.801-4,4-4h32c2.199,0,4,1.801,4,4v24	C44,39.199,42.199,41,40,41z"/><path fill="#ff6e40" d="M40,26H8c-2.199,0-4-1.801-4-4v-9c0-2.199,1.801-4,4-4h32c2.199,0,4,1.801,4,4v9	C44,24.199,42.199,26,40,26z"/><path fill="#fff3e0" d="M26,24h-4c-0.602,0-1-0.398-1-1v-2c0-0.602,0.398-1,1-1h4c0.602,0,1,0.398,1,1v2	C27,23.602,26.602,24,26,24z"/><path fill="#d84315" d="M44,27.495l-7.251-3.191C36.329,24.102,35.887,24,35.436,24c-0.452,0-0.893,0.102-1.313,0.304	l-11.825,5.207c-0.879,0.437-1.424,1.313-1.424,2.288c0,0.975,0.545,1.851,1.509,2.328l3.866,1.701	c-0.309,1.575-0.575,3.417-0.638,5.173H40c2.199,0,4-1.801,4-4V27.495z"/><path fill="#f4511e" d="M40,26c0.168,0,0.327-0.029,0.49-0.05l-3.741-1.646C36.329,24.102,35.887,24,35.436,24	c-0.452,0-0.893,0.102-1.313,0.304L30.271,26H40z"/><path fill="#37474f" d="M41.718,32.296H29.154c0,0-1.57,5.235-1.57,9.423c5.235,0.523,7.834,4.176,7.834,4.176l0.018,0.012	l0.018-0.012c0,0,2.599-3.652,7.834-4.176C43.288,37.53,41.718,32.296,41.718,32.296z"/><path fill="#78909c" d="M34.966,26.118l-11.778,5.184c-0.419,0.209-0.419,0.785,0,0.994l11.778,5.182	c0.313,0.106,0.628,0.106,0.941,0l11.778-5.182c0.419-0.209,0.419-0.785,0-0.994l-11.778-5.184	C35.593,25.961,35.279,25.961,34.966,26.118z"/><path fill="#ffb300" d="M24.979,43.289c0.89,0,1.57,0.681,1.57,1.57c0,0.89-1.57,3.141-1.57,3.141s-1.57-2.251-1.57-3.141	C23.409,43.97,24.09,43.289,24.979,43.289z"/><path fill="#ffb300" d="M24.979,44.935c-0.469,0-0.85-0.381-0.85-0.85v-11.17c0-0.416,0.302-0.771,0.712-0.839l10.745-1.766 c0.457-0.075,0.901,0.238,0.977,0.701c0.076,0.463-0.238,0.9-0.701,0.977l-10.032,1.649v10.448 C25.829,44.554,25.448,44.935,24.979,44.935z"/></svg>